<svg width="36" height="48" viewBox="0 0 36 48" fill="none" xmlns="http://www.w3.org/2000/svg">
<path d="M25.5043 47.3228L18.6849 44.5788C18.252 44.4047 17.7686 44.4047 17.3357 44.5788L10.5172 47.3228C10.2424 47.4332 9.94472 47.4746 9.65024 47.4433C9.35576 47.412 9.07345 47.3089 8.82807 47.1431C8.5827 46.9773 8.38174 46.7539 8.24281 46.4923C8.10389 46.2308 8.03125 45.9392 8.03125 45.643V20.0604H27.991V45.643C27.9911 45.9393 27.9184 46.231 27.7795 46.4926C27.6405 46.7543 27.4394 46.9778 27.194 47.1436C26.9485 47.3094 26.666 47.4125 26.3714 47.4437C26.0768 47.475 25.7791 47.4334 25.5043 47.3228Z" fill="#C0C6D1"/>
<path d="M35.4424 18.3343C35.4424 20.5841 33.2499 22.3819 32.4421 24.3391C31.5988 26.3671 31.8451 29.1793 30.3163 30.7082C28.7874 32.237 25.976 31.9924 23.948 32.8332C21.99 33.6444 20.1922 35.8334 17.9424 35.8334C15.6926 35.8334 13.8948 33.641 11.9367 32.8332C9.90872 31.9899 7.09648 32.2361 5.56851 30.7082C4.04054 29.1802 4.28171 26.3671 3.44267 24.3391C2.63146 22.3827 0.442383 20.5841 0.442383 18.3343C0.442383 16.0845 2.63484 14.2867 3.44267 12.3287C4.28592 10.3048 4.03969 7.48839 5.56851 5.95957C7.09732 4.43076 9.90872 4.6753 11.9367 3.83458C13.8948 3.02674 15.6926 0.83429 17.9424 0.83429C20.1922 0.83429 21.99 3.02674 23.948 3.83458C25.9718 4.67783 28.7883 4.4316 30.3163 5.95957C31.8442 7.48754 31.6031 10.3006 32.4463 12.3287C33.2533 14.285 35.4424 16.0837 35.4424 18.3343Z" fill="#F3B811"/>
<path d="M17.942 29.913C24.3367 29.913 29.5207 24.729 29.5207 18.3343C29.5207 11.9396 24.3367 6.7556 17.942 6.7556C11.5472 6.7556 6.36328 11.9396 6.36328 18.3343C6.36328 24.729 11.5472 29.913 17.942 29.913Z" fill="#F6F7F8"/>
<path d="M23.6127 23.5543H12.4127C11.8338 23.5543 11.3627 24.0217 11.3627 24.596C11.3627 25.1703 11.8338 25.6376 12.4127 25.6376H23.6127C24.1916 25.6376 24.6627 25.1703 24.6627 24.596C24.6627 24.0217 24.1916 23.5543 23.6127 23.5543ZM26.7627 14.5265C26.7627 15.239 26.2167 15.821 25.5195 15.9001L24.1713 22.8598H11.8541L10.5059 15.9001C9.80868 15.821 9.2627 15.239 9.2627 14.5265C9.2627 13.7606 9.89061 13.1376 10.6627 13.1376C11.4348 13.1376 12.0627 13.7606 12.0627 14.5265C12.0627 15.0411 11.7757 15.4862 11.355 15.7265C12.1642 17.6293 13.4333 18.7966 14.6093 18.6911C15.9225 18.5848 16.9935 17.0446 17.5843 14.4675C16.8269 14.2772 16.2627 13.6001 16.2627 12.7904C16.2627 11.8328 17.0474 11.0543 18.0127 11.0543C18.978 11.0543 19.7627 11.8328 19.7627 12.7904C19.7627 13.6001 19.1985 14.2772 18.4411 14.4675C19.0319 17.0446 20.103 18.5848 21.4161 18.6911C22.597 18.7966 23.8605 17.6293 24.6705 15.7265C24.2497 15.4862 23.9628 15.0411 23.9628 14.5265C23.9628 13.7606 24.5907 13.1376 25.3628 13.1376C26.1348 13.1376 26.7627 13.7606 26.7627 14.5265Z" fill="#F3B811"/>
</svg>
