<svg width="36" height="48" viewBox="0 0 36 48" fill="none" xmlns="http://www.w3.org/2000/svg">
<path d="M25.5048 47.3228L18.6854 44.5788C18.2525 44.4047 17.7691 44.4047 17.3362 44.5788L10.5176 47.3228C10.2429 47.4332 9.94521 47.4746 9.65073 47.4433C9.35624 47.412 9.07394 47.3089 8.82856 47.1431C8.58318 46.9773 8.38223 46.7539 8.2433 46.4923C8.10438 46.2308 8.03174 45.9392 8.03174 45.643V20.0604H27.9915V45.643C27.9916 45.9393 27.9189 46.231 27.78 46.4926C27.641 46.7543 27.4399 46.9778 27.1944 47.1436C26.949 47.3094 26.6665 47.4125 26.3719 47.4437C26.0773 47.475 25.7796 47.4334 25.5048 47.3228Z" fill="#C0C6D1"/>
<path d="M35.4424 18.3343C35.4424 20.5841 33.2499 22.3819 32.4421 24.3391C31.5988 26.3671 31.8451 29.1793 30.3163 30.7082C28.7874 32.237 25.976 31.9924 23.948 32.8332C21.99 33.6444 20.1922 35.8334 17.9424 35.8334C15.6926 35.8334 13.8948 33.641 11.9367 32.8332C9.90872 31.9899 7.09648 32.2361 5.56851 30.7082C4.04054 29.1802 4.28171 26.3671 3.44267 24.3391C2.63146 22.3827 0.442383 20.5841 0.442383 18.3343C0.442383 16.0845 2.63484 14.2867 3.44267 12.3286C4.28592 10.3048 4.03969 7.48839 5.56851 5.95957C7.09732 4.43076 9.90872 4.6753 11.9367 3.83458C13.8948 3.02674 15.6926 0.83429 17.9424 0.83429C20.1922 0.83429 21.99 3.02674 23.948 3.83458C25.9718 4.67783 28.7883 4.4316 30.3163 5.95957C31.8442 7.48754 31.6031 10.3006 32.4463 12.3286C33.2533 14.285 35.4424 16.0836 35.4424 18.3343Z" fill="#F3B811"/>
<path d="M17.9429 29.913C24.3377 29.913 29.5216 24.7291 29.5216 18.3343C29.5216 11.9396 24.3377 6.75565 17.9429 6.75565C11.5482 6.75565 6.36426 11.9396 6.36426 18.3343C6.36426 24.7291 11.5482 29.913 17.9429 29.913Z" fill="#F6F7F8"/>
</svg>
