<svg width="36" height="48" viewBox="0 0 36 48" fill="none" xmlns="http://www.w3.org/2000/svg">
<path d="M25.5043 47.3228L18.6849 44.5788C18.252 44.4047 17.7686 44.4047 17.3357 44.5788L10.5172 47.3228C10.2424 47.4332 9.94472 47.4746 9.65024 47.4433C9.35576 47.412 9.07345 47.3089 8.82807 47.1431C8.5827 46.9773 8.38174 46.7539 8.24281 46.4923C8.10389 46.2308 8.03125 45.9392 8.03125 45.643V20.0604H27.991V45.643C27.9911 45.9393 27.9184 46.231 27.7795 46.4926C27.6405 46.7543 27.4394 46.9778 27.194 47.1436C26.9485 47.3094 26.666 47.4125 26.3714 47.4437C26.0768 47.475 25.7791 47.4334 25.5043 47.3228Z" fill="#C0C6D1"/>
<path d="M35.4424 18.3343C35.4424 20.5841 33.2499 22.3819 32.4421 24.3391C31.5988 26.3671 31.8451 29.1793 30.3163 30.7082C28.7874 32.237 25.976 31.9924 23.948 32.8332C21.99 33.6444 20.1922 35.8334 17.9424 35.8334C15.6926 35.8334 13.8948 33.641 11.9367 32.8332C9.90872 31.9899 7.09648 32.2361 5.56851 30.7082C4.04054 29.1802 4.28171 26.3671 3.44267 24.3391C2.63146 22.3827 0.442383 20.5841 0.442383 18.3343C0.442383 16.0845 2.63484 14.2867 3.44267 12.3287C4.28592 10.3048 4.03969 7.48839 5.56851 5.95957C7.09732 4.43076 9.90872 4.6753 11.9367 3.83458C13.8948 3.02674 15.6926 0.83429 17.9424 0.83429C20.1922 0.83429 21.99 3.02674 23.948 3.83458C25.9718 4.67783 28.7883 4.4316 30.3163 5.95957C31.8442 7.48754 31.6031 10.3006 32.4463 12.3287C33.2533 14.285 35.4424 16.0837 35.4424 18.3343Z" fill="#F3B811"/>
<path d="M17.942 29.913C24.3367 29.913 29.5207 24.729 29.5207 18.3343C29.5207 11.9396 24.3367 6.7556 17.942 6.7556C11.5472 6.7556 6.36328 11.9396 6.36328 18.3343C6.36328 24.729 11.5472 29.913 17.942 29.913Z" fill="#F6F7F8"/>
<path d="M19.0012 12.0445L20.1556 14.382C20.2401 14.5538 20.3653 14.7024 20.5201 14.8151C20.6749 14.9278 20.8549 15.0011 21.0444 15.0287L23.6247 15.4031C23.8431 15.4344 24.0484 15.5263 24.2173 15.6683C24.3861 15.8104 24.5118 15.9969 24.58 16.2068C24.6482 16.4166 24.6563 16.6414 24.6032 16.8555C24.5502 17.0697 24.4382 17.2647 24.2799 17.4185L22.4113 19.2382C22.2745 19.3721 22.1723 19.5373 22.1136 19.7194C22.0548 19.9016 22.0412 20.0953 22.074 20.2839L22.5141 22.8533C22.5517 23.0705 22.5276 23.294 22.4447 23.4982C22.3618 23.7025 22.2233 23.8795 22.0449 24.0092C21.8666 24.1388 21.6555 24.2159 21.4356 24.2317C21.2157 24.2476 20.9957 24.2015 20.8007 24.0987L18.4918 22.8853C18.3227 22.7967 18.1346 22.7503 17.9437 22.7503C17.7528 22.7503 17.5647 22.7967 17.3956 22.8853L15.0876 24.0987C14.8925 24.2015 14.6726 24.2476 14.4527 24.2317C14.2328 24.2159 14.0217 24.1388 13.8433 24.0092C13.665 23.8795 13.5265 23.7025 13.4436 23.4982C13.3607 23.294 13.3366 23.0705 13.3741 22.8533L13.8101 20.2839C13.8428 20.0953 13.8293 19.9016 13.7705 19.7194C13.7117 19.5373 13.6096 19.3721 13.4728 19.2382L11.605 17.4185C11.4467 17.2647 11.3347 17.0697 11.2817 16.8555C11.2286 16.6414 11.2367 16.4166 11.3049 16.2068C11.3731 15.9969 11.4988 15.8104 11.6676 15.6683C11.8365 15.5263 12.0418 15.4344 12.2602 15.4031L14.8406 15.0287C15.03 15.0011 15.21 14.9278 15.3648 14.8151C15.5197 14.7024 15.6448 14.5538 15.7293 14.382L16.8837 12.0445C16.9812 11.8469 17.132 11.6805 17.3191 11.5642C17.5062 11.4479 17.7221 11.3863 17.9425 11.3863C18.1628 11.3863 18.3787 11.4479 18.5658 11.5642C18.7529 11.6805 18.9037 11.8469 19.0012 12.0445Z" fill="#F3B811"/>
</svg>
